<?xml version="1.0" standalone="no"?>
<!DOCTYPE svg PUBLIC "-//W3C//DTD SVG 20010904//EN"
 "http://www.w3.org/TR/2001/REC-SVG-20010904/DTD/svg10.dtd">
<svg version="1.0" xmlns="http://www.w3.org/2000/svg"
 width="1255.000000pt" height="1255.000000pt" viewBox="0 0 1255.000000 1255.000000"
 preserveAspectRatio="xMidYMid meet">

<g transform="translate(0.000000,1255.000000) scale(0.100000,-0.100000)"
fill="#000000" stroke="none">
<path d="M8269 10326 c-2 -2 -24 -6 -49 -9 -62 -7 -74 -11 -170 -48 -200 -77
-395 -214 -599 -422 -193 -197 -362 -421 -499 -661 -233 -408 -368 -753 -443
-1131 -34 -176 -38 -190 -43 -184 -7 6 -44 154 -51 198 -41 273 -53 307 -107
294 -90 -22 -384 -448 -619 -898 -266 -510 -429 -1030 -480 -1530 -21 -211 -1
-573 41 -714 5 -19 8 -36 6 -38 -6 -7 -92 119 -146 215 -57 100 -83 115 -115
70 -25 -36 -83 -229 -109 -367 -108 -554 -21 -1100 239 -1507 20 -31 35 -62
33 -70 -5 -23 -315 -454 -465 -645 -186 -238 -415 -518 -495 -605 -77 -84 -89
-116 -57 -150 47 -50 87 -28 214 121 55 64 110 129 123 144 178 203 633 803
762 1004 43 67 44 68 79 62 51 -10 240 -7 323 5 157 23 302 69 485 156 90 43
81 99 -20 124 -81 20 -207 62 -207 69 0 4 26 15 58 25 210 65 493 220 715 391
43 33 90 69 106 81 43 31 260 227 306 276 23 24 79 86 125 138 47 52 93 104
104 115 10 11 25 31 35 45 9 14 26 36 38 50 32 37 90 118 187 263 207 308 335
540 518 937 147 319 298 822 298 991 0 38 -5 51 -21 63 -20 13 -25 13 -53 -1
-17 -8 -40 -23 -51 -33 -55 -47 -269 -159 -281 -147 -4 4 20 35 53 70 234 250
460 660 593 1073 186 581 247 1188 160 1604 -73 347 -236 556 -451 574 -37 3
-68 4 -70 2z m136 -159 c117 -55 218 -241 259 -477 25 -143 27 -169 26 -365
-1 -620 -198 -1339 -498 -1820 -126 -202 -334 -454 -486 -588 -132 -117 -61
-158 166 -96 91 25 229 76 286 106 52 28 62 29 62 4 0 -32 -49 -209 -92 -336
-253 -739 -713 -1496 -1194 -1965 -120 -117 -286 -260 -360 -310 -50 -34 -221
-147 -249 -165 -135 -86 -402 -196 -568 -236 -96 -23 -147 -51 -147 -80 0 -25
74 -79 170 -126 55 -26 100 -51 100 -54 0 -8 -130 -45 -205 -59 -88 -16 -291
-25 -298 -13 -3 5 24 54 60 109 37 54 94 142 126 194 125 199 257 413 257 417
0 2 13 23 28 46 28 40 203 338 272 462 108 194 137 246 232 425 107 201 153
290 286 555 118 236 193 396 418 893 13 29 35 80 49 113 14 33 39 90 56 127
135 292 411 951 541 1292 93 243 248 696 248 724 0 22 -30 41 -47 30 -8 -5
-42 -81 -75 -169 -246 -666 -485 -1229 -818 -1935 -56 -118 -120 -255 -142
-305 -149 -334 -682 -1368 -886 -1720 -42 -71 -92 -159 -113 -195 -20 -36 -60
-103 -89 -150 -29 -47 -73 -119 -98 -160 -53 -90 -256 -410 -359 -568 -40 -62
-77 -111 -82 -107 -16 9 -86 137 -123 225 -114 270 -158 551 -138 867 12 186
58 454 78 452 4 0 48 -50 97 -110 114 -139 217 -240 242 -236 51 8 54 37 19
189 -96 406 -107 695 -42 1088 45 271 86 425 189 705 106 292 271 626 455 925
70 113 233 349 242 350 3 0 12 -33 19 -72 37 -200 155 -519 219 -590 8 -10 25
-18 38 -18 32 0 41 23 43 105 1 39 9 131 17 205 60 529 247 1027 579 1535 243
372 563 682 856 827 162 80 281 98 374 55z"/>
</g>
</svg>
